<svg fill="none" xmlns="http://www.w3.org/2000/svg" preserveAspectRatio="xMinYMin meet" viewBox="0 0 25 25" width="12" height="12">
  <defs>
    <style>
      :root {
        --color-pine: #286983;
        --color-foam: #9ccfd8;
      }

      .budding {
        fill: var(--color-pine);
      }

      @media (prefers-color-scheme:dark) {
        .budding {
          fill: var(--color-foam);
        }
      }
    </style>
  </defs>
  <path class="budding" d="M12.79 18.34a.41.41 0 01-.59 0c-4-4.22-4-12.11 0-16.32a.4.4 0 01.59 0c4.06 4.21 4.06 12.1 0 16.32z"></path>
  <path class="budding" d="M12.21 21.89a12.63 12.63 0 00-11.4-9.16.3.3 0 00-.31.33 11.67 11.67 0 0012 10h.06a11.67 11.67 0 0012-10 .3.3 0 00-.31-.33 12.63 12.63 0 00-11.4 9.16.3.3 0 01-.64 0z"></path>
  <path fill="none" d="M0 0h25v25H0z"></path>
</svg>
